<svg width="768" height="768" viewBox="0 0 768 768" fill="none" xmlns="http://www.w3.org/2000/svg">
<path d="M672 354.56V384C671.968 463.52 639.712 535.456 587.52 587.584C535.328 639.712 463.36 671.872 383.84 671.808C304.32 671.744 232.352 639.52 180.256 587.328C128.16 535.136 95.9681 463.2 96.0001 383.648C96.0321 304.096 128.288 232.192 180.48 180.064C232.672 127.936 304.64 95.7757 384.16 95.8077C426.72 95.8397 466.912 105.056 500.928 120.608C516.992 127.968 536 120.864 543.328 104.8C550.656 88.7357 543.584 69.7277 527.52 62.3997C485.056 43.0077 435.808 31.8397 384.192 31.8077C287.008 31.7437 198.944 71.1357 135.232 134.752C71.5201 198.368 32.0641 286.432 32.0001 383.616C31.9361 480.8 71.3281 568.864 134.944 632.576C198.56 696.288 286.592 735.776 383.776 735.808C480.96 735.84 569.024 696.48 632.736 632.864C696.448 569.248 735.936 481.216 736 384V354.56C736 336.896 721.664 322.56 704 322.56C686.336 322.56 672 336.896 672 354.56ZM681.376 105.376L384 403.04L310.624 329.696C298.112 317.184 277.856 317.184 265.376 329.696C252.896 342.208 252.864 362.464 265.376 374.944L361.376 470.944C373.888 483.456 394.144 483.424 406.656 470.944L726.656 150.624C739.136 138.112 739.136 117.856 726.624 105.376C714.112 92.8957 693.856 92.8957 681.376 105.408V105.376Z" fill="white"/>
</svg>
