<svg width="1836" height="250" viewBox="0 0 1836 250" fill="none" xmlns="http://www.w3.org/2000/svg">
<path d="M171.109 214.714H11.5828C10.1788 214.714 8.95032 214.275 7.89734 213.398C7.01986 212.345 6.58112 211.116 6.58112 209.712V35.4442C6.58112 34.0402 7.01986 32.8995 7.89734 32.022C8.95032 30.969 10.1788 30.4425 11.5828 30.4425H165.318C176.023 30.4425 185.939 33.1627 195.064 38.6031C204.366 43.868 211.649 51.0634 216.914 60.1892C222.354 69.1395 225.074 78.9673 225.074 89.6726C225.074 100.202 222.442 110.03 217.177 119.156C225.776 130.037 230.076 142.322 230.076 156.01C230.076 166.716 227.443 176.543 222.179 185.494C216.914 194.444 209.718 201.552 200.593 206.817C191.642 212.081 181.814 214.714 171.109 214.714ZM73.9718 97.3067H145.574C151.19 97.3067 153.998 95.2885 153.998 91.2521C153.998 87.2157 151.19 85.1974 145.574 85.1974H73.9718C72.5678 85.1974 71.3393 85.7239 70.2864 86.7769C69.4089 87.6544 68.9701 88.7951 68.9701 90.1991V92.305C68.9701 93.709 69.4089 94.9375 70.2864 95.9905C71.3393 96.868 72.5678 97.3067 73.9718 97.3067ZM73.9718 160.749H145.574C151.19 160.749 153.998 158.73 153.998 154.694C153.998 150.658 151.19 148.639 145.574 148.639H73.9718C72.5678 148.639 71.3393 149.166 70.2864 150.219C69.4089 151.096 68.9701 152.237 68.9701 153.641V155.747C68.9701 157.151 69.4089 158.379 70.2864 159.432C71.3393 160.31 72.5678 160.749 73.9718 160.749ZM1176.2 214.714C1166.89 214.714 1158.3 212.345 1150.4 207.606C1142.5 202.692 1136.18 196.199 1131.44 188.126C1126.88 179.878 1124.6 170.927 1124.6 161.275V84.1445C1124.6 74.3167 1126.88 65.3663 1131.44 57.2935C1136.18 49.0452 1142.5 42.5518 1150.4 37.8134C1158.3 32.8995 1166.89 30.4425 1176.2 30.4425H1288.6C1298.08 30.4425 1306.77 32.8995 1314.66 37.8134C1322.56 42.5518 1328.79 49.0452 1333.35 57.2935C1337.92 65.3663 1340.2 74.3167 1340.2 84.1445V161.275C1340.2 170.927 1337.92 179.878 1333.35 188.126C1328.79 196.199 1322.56 202.692 1314.66 207.606C1306.77 212.345 1298.08 214.714 1288.6 214.714H1176.2ZM1269.12 152.851C1271.58 152.851 1273.68 151.974 1275.44 150.219C1277.19 148.288 1278.07 145.919 1278.07 143.111V101.255C1278.07 98.4474 1277.19 96.0782 1275.44 94.1478C1273.68 92.2173 1271.58 91.2521 1269.12 91.2521H1196.2C1193.75 91.2521 1191.55 92.2173 1189.62 94.1478C1187.87 96.0782 1186.99 98.4474 1186.99 101.255V143.111C1186.99 145.919 1187.87 148.288 1189.62 150.219C1191.55 151.974 1193.75 152.851 1196.2 152.851H1269.12ZM1404.99 214.714C1395.69 214.714 1387.09 212.345 1379.19 207.606C1371.3 202.692 1364.98 196.199 1360.24 188.126C1355.68 179.878 1353.4 170.927 1353.4 161.275V84.1445C1353.4 74.3167 1355.68 65.3663 1360.24 57.2935C1364.98 49.0452 1371.3 42.5518 1379.19 37.8134C1387.09 32.8995 1395.69 30.4425 1404.99 30.4425H1517.4C1526.88 30.4425 1535.56 32.8995 1543.46 37.8134C1551.36 42.5518 1557.59 49.0452 1562.15 57.2935C1566.71 65.3663 1568.99 74.3167 1568.99 84.1445V161.275C1568.99 170.927 1566.71 179.878 1562.15 188.126C1557.59 196.199 1551.36 202.692 1543.46 207.606C1535.56 212.345 1526.88 214.714 1517.4 214.714H1404.99ZM1497.92 152.851C1500.38 152.851 1502.48 151.974 1504.24 150.219C1505.99 148.288 1506.87 145.919 1506.87 143.111V101.255C1506.87 98.4474 1505.99 96.0782 1504.24 94.1478C1502.48 92.2173 1500.38 91.2521 1497.92 91.2521H1425C1422.54 91.2521 1420.35 92.2173 1418.42 94.1478C1416.66 96.0782 1415.79 98.4474 1415.79 101.255V143.111C1415.79 145.919 1416.66 148.288 1418.42 150.219C1420.35 151.974 1422.54 152.851 1425 152.851H1497.92Z" fill="#38A65D"/>
<path d="M307.842 85.4607C306.438 85.4607 305.736 86.0749 305.736 87.3034V98.0964C305.736 99.3249 306.438 99.9392 307.842 99.9392H432.094C433.498 99.9392 434.638 100.466 435.516 101.519C436.569 102.396 437.095 103.537 437.095 104.941V141.005C437.095 142.409 436.569 143.638 435.516 144.691C434.638 145.568 433.498 146.007 432.094 146.007H307.842C306.438 146.007 305.736 146.621 305.736 147.85V159.169C305.736 160.398 306.438 161.012 307.842 161.012H432.094C433.498 161.012 434.638 161.538 435.516 162.591C436.569 163.469 437.095 164.61 437.095 166.014V209.712C437.095 211.116 436.569 212.345 435.516 213.398C434.638 214.275 433.498 214.714 432.094 214.714H248.349C246.945 214.714 245.716 214.275 244.663 213.398C243.786 212.345 243.347 211.116 243.347 209.712V35.4442C243.347 34.0402 243.786 32.8995 244.663 32.022C245.716 30.969 246.945 30.4425 248.349 30.4425H432.094C433.498 30.4425 434.638 30.969 435.516 32.022C436.569 32.8995 437.095 34.0402 437.095 35.4442V80.459C437.095 81.863 436.569 83.0915 435.516 84.1445C434.638 85.0219 433.498 85.4607 432.094 85.4607H307.842ZM1052.36 214.714H892.836C891.432 214.714 890.203 214.275 889.15 213.398C888.273 212.345 887.834 211.116 887.834 209.712V35.4442C887.834 34.0402 888.273 32.8995 889.15 32.022C890.203 30.969 891.432 30.4425 892.836 30.4425H1046.57C1057.28 30.4425 1067.19 33.1627 1076.32 38.6031C1085.62 43.868 1092.9 51.0634 1098.17 60.1892C1103.61 69.1395 1106.33 78.9673 1106.33 89.6726C1106.33 100.202 1103.69 110.03 1098.43 119.156C1107.03 130.037 1111.33 142.322 1111.33 156.01C1111.33 166.716 1108.7 176.543 1103.43 185.494C1098.17 194.444 1090.97 201.552 1081.85 206.817C1072.9 212.081 1063.07 214.714 1052.36 214.714ZM955.225 97.3067H1026.83C1032.44 97.3067 1035.25 95.2885 1035.25 91.2521C1035.25 87.2157 1032.44 85.1974 1026.83 85.1974H955.225C953.821 85.1974 952.592 85.7239 951.539 86.7769C950.662 87.6544 950.223 88.7951 950.223 90.1991V92.305C950.223 93.709 950.662 94.9375 951.539 95.9905C952.592 96.868 953.821 97.3067 955.225 97.3067ZM955.225 160.749H1026.83C1032.44 160.749 1035.25 158.73 1035.25 154.694C1035.25 150.658 1032.44 148.639 1026.83 148.639H955.225C953.821 148.639 952.592 149.166 951.539 150.219C950.662 151.096 950.223 152.237 950.223 153.641V155.747C950.223 157.151 950.662 158.379 951.539 159.432C952.592 160.31 953.821 160.749 955.225 160.749Z" fill="#38A65D" fill-opacity="0.25"/>
<path d="M479.675 236.058C477.594 236.384 475.825 235.861 474.367 234.49C473.083 233.092 472.452 231.326 472.473 229.191L491.442 52.2398C491.572 50.7985 492.103 49.6497 493.035 48.7936C494.113 47.7369 495.346 47.1001 496.733 46.8833L596.086 31.3536C597.473 31.1368 598.841 31.367 600.19 32.0443C601.54 32.7215 602.396 33.6534 602.759 34.8401L674.821 197.562C675.666 199.562 675.604 201.437 674.634 203.187C673.664 204.937 672.139 205.975 670.058 206.3L617.781 214.471C616.394 214.688 615.039 214.545 613.717 214.041C612.541 213.336 611.672 212.318 611.108 210.985L605.271 197.509C604.99 196.843 604.461 196.304 603.686 195.892C602.912 195.48 602.091 195.342 601.224 195.478L541.924 204.747C541.057 204.882 540.317 205.264 539.705 205.893C539.093 206.521 538.754 207.196 538.689 207.917C538.586 209.531 538.443 210.886 538.259 211.981C538.075 213.075 537.964 214.069 537.926 214.964C537.417 219.661 537.197 222.804 537.268 224.392C537.019 226.207 535.94 227.264 534.033 227.562L479.675 236.058ZM575.496 141.681C576.71 141.492 577.596 140.909 578.154 139.934C578.685 138.785 578.669 137.544 578.105 136.211L560.457 96.6055C560.121 95.5922 559.346 95.1805 558.133 95.3702L552.411 96.2646C551.37 96.4272 550.758 97.0558 550.574 98.1503L545.854 141.252L546.017 142.293C546.179 143.333 546.589 144.246 547.244 145.032C548.046 145.617 548.967 145.828 550.008 145.665L575.496 141.681Z" fill="#38A65D" fill-opacity="0.25"/>
<path d="M1805.78 43.2302L1744.58 137.599C1743.97 138.382 1743.75 139.383 1743.9 140.602C1744.05 141.821 1744.52 142.736 1745.3 143.345L1827.78 219.819C1828.36 220.277 1828.54 220.962 1828.3 221.876C1828.04 222.616 1827.47 223.041 1826.6 223.149L1762.34 231.153C1757.98 231.695 1754.21 230.485 1751.01 227.524L1699.15 179.601C1697.54 178.033 1695.6 177.39 1693.34 177.672L1677.66 179.624C1676.97 179.711 1676.14 180.168 1675.18 180.994C1674.61 182.126 1674.37 183.04 1674.46 183.737L1681.16 237.549C1681.29 238.594 1681.05 239.508 1680.44 240.292C1679.83 241.075 1679.01 241.532 1677.96 241.662L1623.37 248.462C1622.32 248.592 1621.41 248.352 1620.62 247.742C1619.8 246.784 1619.34 245.957 1619.25 245.26L1597.39 69.7161C1597.26 68.6712 1597.5 67.7571 1598.11 66.9737C1598.72 66.1903 1599.55 65.7336 1600.59 65.6034L1655.19 58.8035C1656.23 58.6733 1657.15 58.9132 1657.93 59.523C1658.71 60.1329 1659.17 60.9602 1659.3 62.0051L1666.13 116.863C1666.22 117.559 1666.68 118.387 1667.5 119.345C1668.63 119.911 1669.55 120.151 1670.24 120.064L1684.87 118.242C1687.31 117.939 1689.12 116.829 1690.29 114.914L1729.47 54.5917C1731.84 50.9358 1735.21 48.8367 1739.56 48.2944L1803.82 40.2906C1804.7 40.1822 1805.35 40.4546 1805.78 41.1078C1806.24 41.9352 1806.24 42.6426 1805.78 43.2302Z" fill="#38A65D" fill-opacity="0.25"/>
<path d="M709.762 198.178C708.568 197.89 707.712 197.323 707.194 196.476C706.717 195.458 706.601 194.438 706.848 193.414L734.769 77.4791C735.016 76.4554 734.88 75.5201 734.362 74.6733C733.844 73.8264 733.073 73.2797 732.049 73.0332L669.347 57.9322C668.494 57.7267 667.744 57.0947 667.096 56.0362C666.66 54.8481 666.545 53.8275 666.75 52.9744L678.276 5.11603C678.482 4.26294 679.049 3.40672 679.978 2.54738C680.825 2.02927 681.76 1.89349 682.784 2.14004L875.753 48.6142C876.777 48.8608 877.548 49.4075 878.066 50.2543C878.502 51.4424 878.617 52.4629 878.411 53.316L866.885 101.174C866.68 102.028 866.113 102.884 865.184 103.743C864.125 104.391 863.169 104.612 862.316 104.406L799.614 89.3053C798.761 89.0999 797.826 89.2356 796.808 89.7127C795.961 90.2308 795.415 91.0017 795.168 92.0254L767.247 207.96C767 208.984 766.433 209.84 765.545 210.529C764.698 211.047 763.678 211.162 762.483 210.875L709.762 198.178Z" fill="#38A65D" fill-opacity="0.25"/>
</svg>
