<svg width="512" height="512" viewBox="0 0 512 512" fill="none" xmlns="http://www.w3.org/2000/svg">
<rect width="512" height="512" rx="256" fill="#38A65D"/>
<rect x="156" y="156" width="200" height="200" rx="100" fill="#252525"/>
<rect x="242" y="242" width="28" height="28" rx="14" fill="white"/>
<path d="M386.984 354.178L409.208 318.569C409.404 318.256 409.673 318.042 410.016 317.93C410.373 317.88 410.708 317.954 411.022 318.149L449.921 342.427C450.235 342.623 450.428 342.88 450.502 343.198C450.59 343.58 450.536 343.927 450.341 344.241L428.923 378.557C427.432 380.947 425.443 382.781 422.957 384.06C420.486 385.403 417.866 386.026 415.095 385.93C412.339 385.897 409.767 385.135 407.377 383.644C405.027 382.177 403.2 380.22 401.896 377.774C398.269 378.177 394.928 377.426 391.873 375.519C389.483 374.027 387.656 372.07 386.392 369.648C385.127 367.226 384.543 364.63 384.639 361.859C384.711 359.128 385.492 356.568 386.984 354.178ZM426.724 348.852L416.749 364.835C415.966 366.088 416.025 366.996 416.926 367.559C417.827 368.121 418.669 367.775 419.452 366.522L429.427 350.539C429.622 350.225 429.676 349.878 429.588 349.496C429.514 349.178 429.321 348.921 429.007 348.726L428.537 348.432C428.224 348.237 427.888 348.163 427.531 348.213C427.189 348.325 426.919 348.538 426.724 348.852ZM412.563 340.013L402.587 355.996C401.805 357.25 401.864 358.158 402.765 358.72C403.666 359.283 404.508 358.937 405.29 357.683L415.266 341.7C415.461 341.387 415.515 341.039 415.426 340.658C415.353 340.34 415.159 340.083 414.846 339.887L414.376 339.594C414.062 339.398 413.727 339.325 413.37 339.374C413.027 339.487 412.758 339.7 412.563 340.013ZM384.209 406.84C384.5 406.613 384.546 406.372 384.347 406.117L382.6 403.878C382.402 403.623 382.157 403.61 381.865 403.837L356.09 423.949C355.799 424.176 355.477 424.252 355.124 424.175C354.764 424.164 354.47 424.012 354.243 423.721L348.405 416.24C348.178 415.949 348.088 415.609 348.136 415.22C348.176 414.896 348.342 414.62 348.633 414.393L374.408 394.28C374.7 394.053 374.746 393.812 374.547 393.557L372.715 391.209C372.516 390.954 372.271 390.94 371.979 391.168L346.204 411.28C345.913 411.507 345.591 411.583 345.239 411.506C344.878 411.495 344.584 411.343 344.357 411.052L337.284 401.987C337.056 401.696 336.967 401.356 337.015 400.967C337.055 400.643 337.22 400.367 337.512 400.14L375.628 370.397C375.92 370.17 376.245 370.062 376.606 370.074C376.958 370.15 377.248 370.334 377.476 370.625L405.684 406.776C405.911 407.067 406.005 407.375 405.965 407.699C405.917 408.088 405.747 408.396 405.456 408.623L367.339 438.366C367.048 438.593 366.726 438.669 366.374 438.592C366.013 438.581 365.719 438.429 365.492 438.138L358.206 428.8C357.978 428.509 357.889 428.169 357.937 427.78C357.977 427.456 358.142 427.18 358.434 426.953L384.209 406.84ZM332.076 402.954C332.601 402.777 333.083 402.834 333.522 403.125C333.917 403.43 334.16 403.86 334.249 404.415L337.186 451.15C337.216 451.529 337.13 451.851 336.926 452.114C336.693 452.436 336.402 452.656 336.052 452.774L310.974 461.213C310.624 461.331 310.258 461.332 309.878 461.216C309.498 461.1 309.235 460.896 309.088 460.605L283.174 421.602C282.866 421.121 282.799 420.632 282.973 420.135C283.146 419.638 283.496 419.301 284.021 419.124L297.217 414.684C297.567 414.566 297.924 414.543 298.29 414.615C298.626 414.746 298.897 414.971 299.102 415.292L301.214 418.528C301.317 418.688 301.478 418.804 301.697 418.877C301.916 418.949 302.135 418.949 302.354 418.875L317.322 413.838C317.541 413.765 317.716 413.633 317.847 413.442C317.977 413.252 318.035 413.062 318.02 412.872C317.975 412.449 317.952 412.091 317.951 411.799C317.951 411.507 317.935 411.244 317.905 411.011C317.829 409.77 317.746 408.945 317.657 408.536C317.641 408.055 317.874 407.733 318.355 407.571L332.076 402.954ZM311.415 431.685C311.109 431.788 310.905 431.978 310.803 432.256C310.717 432.578 310.776 432.899 310.981 433.219L317.317 442.708C317.449 442.955 317.668 443.028 317.975 442.925L319.419 442.439C319.681 442.35 319.812 442.16 319.811 441.868L319.122 430.48L319.033 430.217C318.945 429.955 318.798 429.736 318.594 429.562C318.36 429.445 318.111 429.432 317.849 429.52L311.415 431.685ZM259.399 419.64C259.722 419.647 259.974 419.745 260.155 419.934C260.334 420.169 260.421 420.424 260.415 420.701L259.726 452.071C259.72 452.348 259.807 452.581 259.988 452.77C260.168 452.959 260.397 453.056 260.674 453.062L277.64 453.435C277.871 453.44 278.099 453.561 278.325 453.796C278.504 454.078 278.59 454.333 278.585 454.564L278.301 467.514C278.296 467.745 278.198 467.997 278.007 468.27C277.818 468.45 277.585 468.538 277.309 468.531L225.094 467.384C224.817 467.378 224.589 467.281 224.408 467.092C224.229 466.811 224.143 466.555 224.148 466.324L224.432 453.375C224.437 453.144 224.535 452.892 224.726 452.619C224.962 452.393 225.195 452.283 225.426 452.288L242.392 452.661C242.623 452.666 242.856 452.578 243.091 452.399C243.279 452.218 243.377 451.989 243.383 451.712L244.072 420.342C244.078 420.065 244.176 419.814 244.366 419.587C244.555 419.406 244.811 419.319 245.134 419.327L259.399 419.64ZM181.983 402.022L220.914 417.717C221.257 417.855 221.513 418.083 221.684 418.401C221.794 418.744 221.781 419.087 221.642 419.43L204.497 461.958C204.359 462.3 204.14 462.536 203.839 462.663C203.479 462.817 203.127 462.824 202.785 462.686L165.267 447.561C162.655 446.508 160.503 444.869 158.811 442.643C157.059 440.443 155.989 437.971 155.602 435.226C155.155 432.506 155.458 429.84 156.512 427.228C157.548 424.658 159.157 422.519 161.34 420.81C160.311 417.308 160.471 413.887 161.818 410.547C162.871 407.934 164.48 405.795 166.646 404.128C168.811 402.462 171.266 401.436 174.011 401.049C176.713 400.644 179.371 400.969 181.983 402.022ZM194.138 440.231L176.664 433.186C175.293 432.634 174.409 432.85 174.012 433.835C173.615 434.82 174.102 435.589 175.472 436.141L192.946 443.186C193.289 443.324 193.64 443.316 194.001 443.163C194.301 443.035 194.521 442.8 194.659 442.457L194.866 441.943C195.004 441.601 195.018 441.258 194.907 440.915C194.737 440.597 194.48 440.369 194.138 440.231ZM200.379 424.748L182.905 417.704C181.535 417.151 180.651 417.368 180.254 418.353C179.857 419.338 180.344 420.106 181.714 420.659L199.188 427.704C199.531 427.842 199.882 427.834 200.243 427.681C200.543 427.553 200.762 427.318 200.901 426.975L201.108 426.461C201.246 426.118 201.26 425.776 201.149 425.432C200.979 425.114 200.722 424.887 200.379 424.748ZM155.128 385.24C156.914 386.913 158.14 388.914 158.806 391.244C159.439 393.608 159.485 395.992 158.944 398.395C158.338 400.8 157.167 402.929 155.431 404.784L141.563 419.601C139.796 421.489 137.748 422.798 135.42 423.529C133.027 424.261 130.646 424.373 128.277 423.863C125.876 423.387 123.782 422.313 121.995 420.641L100.401 400.43C98.5805 398.726 97.3534 396.692 96.7198 394.328C96.0547 391.998 96.0253 389.63 96.6318 387.225C97.2068 384.854 98.3778 382.724 100.145 380.836L114.013 366.019C115.749 364.164 117.796 362.855 120.156 362.091C122.484 361.361 124.848 361.233 127.249 361.709C129.618 362.219 131.713 363.326 133.534 365.03L155.128 385.24ZM126.153 380.417C125.681 379.975 125.118 379.765 124.466 379.786C123.782 379.842 123.187 380.139 122.682 380.678L115.156 388.719C114.651 389.259 114.394 389.872 114.384 390.558C114.374 391.245 114.605 391.809 115.077 392.25L129.085 405.361C129.557 405.803 130.152 406.012 130.87 405.988C131.555 405.933 132.149 405.636 132.654 405.096L140.18 397.055C140.685 396.516 140.942 395.903 140.952 395.217C140.897 394.532 140.633 393.969 140.161 393.528L126.153 380.417ZM115.839 341.046C116.918 343.243 117.356 345.549 117.153 347.963C116.909 350.399 116.108 352.644 114.752 354.7C113.333 356.734 111.484 358.311 109.204 359.431L90.9886 368.38C88.6676 369.52 86.2891 370.019 83.8532 369.878C81.3555 369.716 79.089 368.978 77.0537 367.662C74.977 366.367 73.3991 364.621 72.32 362.425L59.279 335.878C58.1795 333.64 57.7519 331.304 57.9962 328.868C58.199 326.454 59.0098 324.229 60.4284 322.194C61.8055 320.18 63.6546 318.603 65.9756 317.463L84.1913 308.514C86.4709 307.394 88.8493 306.895 91.3267 307.015C93.7626 307.156 96.0189 307.875 98.0956 309.169C100.131 310.485 101.698 312.262 102.798 314.5L115.839 341.046ZM90.4479 326.277C90.1629 325.697 89.7113 325.302 89.0932 325.091C88.4337 324.9 87.7724 324.968 87.1092 325.294L77.2243 330.15C76.5611 330.475 76.1034 330.957 75.8511 331.596C75.5988 332.234 75.6152 332.844 75.9002 333.424L84.36 350.645C84.6451 351.225 85.1276 351.631 85.8074 351.863C86.467 352.054 87.1283 351.986 87.7914 351.66L97.6764 346.804C98.3395 346.479 98.7973 345.996 99.0496 345.358C99.2401 344.698 99.1928 344.079 98.9077 343.498L90.4479 326.277ZM43.2403 248.925L67.628 265.691C67.8298 265.857 68.0915 265.924 68.4132 265.893C68.7349 265.862 68.9788 265.745 69.1447 265.544L89.8443 244.392C89.9687 244.241 90.1503 244.2 90.3891 244.269C90.5819 244.343 90.6894 244.495 90.7118 244.725L92.3614 261.685C92.4732 262.834 92.1282 263.818 91.3265 264.639L78.3538 277.94C77.9299 278.352 77.7471 278.857 77.8052 279.455L78.2075 283.591C78.2254 283.775 78.3397 283.996 78.5503 284.254C78.844 284.411 79.0827 284.481 79.2666 284.463L93.4684 283.081C93.7442 283.054 93.9829 283.124 94.1846 283.29C94.3863 283.456 94.5006 283.677 94.5274 283.953L95.929 298.361C95.9558 298.637 95.8862 298.876 95.7203 299.077C95.4624 299.288 95.2415 299.402 95.0577 299.42L48.7295 303.927C48.4537 303.953 48.2149 303.884 48.0132 303.718C47.8115 303.552 47.6972 303.331 47.6704 303.055L46.2689 288.647C46.242 288.371 46.3116 288.132 46.4776 287.93C46.6435 287.729 46.8644 287.614 47.1402 287.588L61.6177 286.179C61.8016 286.161 62.0224 286.047 62.2803 285.837C62.4373 285.543 62.5069 285.304 62.489 285.12L62.1135 281.26C62.0509 280.616 61.7719 280.133 61.2766 279.81L45.6877 269.078C44.7429 268.428 44.2146 267.528 44.1029 266.379L42.4532 249.419C42.4309 249.19 42.5071 249.02 42.682 248.91C42.9029 248.796 43.089 248.801 43.2403 248.925ZM121.225 163.11L100.424 199.568C100.241 199.889 99.9803 200.113 99.6425 200.239C99.2874 200.302 98.9494 200.242 98.6286 200.059L58.8006 177.336C58.4798 177.153 58.2763 176.904 58.1901 176.589C58.0868 176.211 58.1266 175.862 58.3097 175.541L78.3556 140.406C79.7515 137.959 81.6661 136.047 84.0994 134.671C86.5155 133.232 89.1096 132.506 91.8817 132.492C94.6367 132.416 97.2375 133.076 99.6841 134.472C102.091 135.845 103.993 137.728 105.393 140.121C109.001 139.574 112.369 140.194 115.497 141.979C117.944 143.374 119.847 145.258 121.206 147.628C122.565 149.998 123.251 152.569 123.264 155.342C123.301 158.074 122.621 160.663 121.225 163.11ZM81.7262 170.001L91.0626 153.636C91.7949 152.353 91.6998 151.448 90.7773 150.922C89.8548 150.395 89.0274 150.774 88.2951 152.057L78.9587 168.422C78.7756 168.743 78.7358 169.092 78.8391 169.47C78.9252 169.785 79.1287 170.034 79.4496 170.217L79.9309 170.492C80.2518 170.675 80.5897 170.735 80.9448 170.671C81.2827 170.545 81.5431 170.322 81.7262 170.001ZM96.2255 178.273L105.562 161.909C106.294 160.625 106.199 159.72 105.277 159.194C104.354 158.668 103.527 159.046 102.794 160.33L93.458 176.694C93.2749 177.015 93.235 177.364 93.3384 177.742C93.4245 178.057 93.628 178.306 93.9489 178.489L94.4302 178.764C94.7511 178.947 95.089 179.007 95.4441 178.944C95.7819 178.817 96.0424 178.594 96.2255 178.273ZM121.927 110.378C121.645 110.616 121.608 110.859 121.817 111.106L123.651 113.275C123.859 113.522 124.105 113.526 124.387 113.287L149.353 92.1789C149.635 91.9404 149.954 91.8524 150.309 91.9149C150.67 91.9124 150.969 92.0521 151.208 92.3342L157.335 99.5808C157.573 99.8629 157.676 100.199 157.643 100.59C157.616 100.915 157.461 101.197 157.179 101.436L132.213 122.544C131.931 122.782 131.894 123.025 132.103 123.272L134.026 125.546C134.235 125.793 134.48 125.797 134.762 125.559L159.728 104.451C160.01 104.212 160.329 104.124 160.684 104.186C161.045 104.184 161.345 104.324 161.583 104.606L169.007 113.386C169.245 113.668 169.348 114.005 169.315 114.395C169.288 114.721 169.134 115.003 168.851 115.241L131.931 146.456C131.649 146.695 131.327 146.815 130.967 146.818C130.612 146.755 130.315 146.583 130.076 146.301L100.471 111.285C100.232 111.003 100.127 110.699 100.154 110.373C100.187 109.983 100.344 109.668 100.626 109.43L137.547 78.2147C137.829 77.9762 138.148 77.8882 138.503 77.9507C138.863 77.9482 139.163 78.0879 139.401 78.37L147.049 87.415C147.287 87.6971 147.39 88.0334 147.357 88.4239C147.33 88.7493 147.176 89.0312 146.893 89.2697L121.927 110.378ZM174.167 112.216C173.65 112.413 173.166 112.376 172.715 112.103C172.308 111.814 172.049 111.394 171.937 110.843L167.114 64.2653C167.068 63.8873 167.142 63.5625 167.335 63.2911C167.554 62.96 167.837 62.7285 168.182 62.5967L192.898 53.1512C193.243 53.0193 193.608 53.0035 193.992 53.1038C194.377 53.2041 194.648 53.397 194.807 53.6824L222.276 91.606C222.603 92.0742 222.69 92.5601 222.536 93.0637C222.383 93.5673 222.047 93.918 221.529 94.1158L208.524 99.0858C208.179 99.2177 207.823 99.255 207.455 99.1979C207.114 99.0811 206.834 98.8667 206.616 98.5546L204.375 95.4068C204.266 95.2507 204.1 95.141 203.878 95.0775C203.656 95.014 203.437 95.0235 203.222 95.1059L188.469 100.744C188.254 100.826 188.084 100.965 187.961 101.16C187.838 101.356 187.788 101.548 187.811 101.737C187.873 102.158 187.91 102.514 187.923 102.806C187.936 103.098 187.962 103.36 188.001 103.592C188.127 104.829 188.243 105.65 188.349 106.055C188.384 106.535 188.165 106.866 187.69 107.048L174.167 112.216ZM193.65 82.6727C193.952 82.5573 194.148 82.3588 194.238 82.0772C194.312 81.7525 194.24 81.434 194.022 81.1219L187.308 71.8975C187.166 71.6552 186.944 71.5917 186.642 71.7071L185.218 72.2511C184.96 72.35 184.837 72.5453 184.849 72.8371L185.999 84.188L186.097 84.4468C186.196 84.7056 186.352 84.9181 186.564 85.0844C186.802 85.191 187.051 85.1948 187.309 85.0959L193.65 82.6727ZM246.105 92.6244C245.782 92.6301 245.526 92.5423 245.338 92.3609C245.149 92.1333 245.053 91.881 245.048 91.604L244.492 60.2313C244.487 59.9543 244.391 59.7251 244.203 59.5436C244.015 59.3622 243.783 59.274 243.506 59.2789L226.538 59.5792C226.307 59.5833 226.074 59.472 225.839 59.2452C225.65 58.9715 225.553 58.7192 225.549 58.4883L225.32 45.5376C225.315 45.3067 225.403 45.0511 225.583 44.7708C225.764 44.5829 225.994 44.4865 226.271 44.4816L278.489 43.5572C278.766 43.5523 278.999 43.6406 279.187 43.822C279.376 44.0957 279.473 44.348 279.477 44.5789L279.706 57.5296C279.711 57.7605 279.623 58.0161 279.443 58.2964C279.216 58.5313 278.987 58.6508 278.757 58.6549L261.789 58.9552C261.558 58.9593 261.329 59.0558 261.101 59.2445C260.92 59.4325 260.832 59.665 260.837 59.942L261.392 91.3146C261.397 91.5917 261.309 91.8472 261.128 92.0814C260.947 92.2693 260.695 92.3661 260.371 92.3719L246.105 92.6244ZM324.159 107.156L284.636 93.0196C284.288 92.8952 284.022 92.6776 283.839 92.3669C283.715 92.0282 283.715 91.685 283.84 91.3372L299.283 48.1616C299.407 47.8138 299.617 47.5701 299.912 47.4304C300.266 47.2629 300.617 47.2413 300.965 47.3657L339.053 60.9891C341.706 61.9377 343.921 63.4903 345.7 65.6469C347.538 67.7755 348.705 70.2036 349.2 72.9311C349.755 75.6307 349.558 78.3066 348.61 80.9589C347.676 83.5677 346.153 85.7693 344.04 87.5637C345.207 91.0215 345.183 94.4461 343.97 97.8375C343.021 100.49 341.498 102.691 339.401 104.442C337.303 106.193 334.891 107.317 332.163 107.812C329.479 108.324 326.811 108.105 324.159 107.156ZM310.497 69.4602L328.237 75.8053C329.628 76.303 330.503 76.0518 330.86 75.0518C331.218 74.0517 330.701 73.3029 329.31 72.8052L311.57 66.4601C311.222 66.3357 310.871 66.3572 310.517 66.5248C310.222 66.6645 310.012 66.9082 309.888 67.256L309.701 67.7778C309.577 68.1256 309.576 68.4689 309.7 68.8075C309.884 69.1182 310.149 69.3358 310.497 69.4602ZM304.875 85.1782L322.615 91.5233C324.006 92.021 324.881 91.7698 325.238 90.7697C325.596 89.7697 325.079 89.0208 323.688 88.5232L305.948 82.1781C305.6 82.0536 305.249 82.0752 304.895 82.2428C304.6 82.3824 304.39 82.6262 304.266 82.974L304.079 83.4958C303.955 83.8436 303.954 84.1868 304.078 84.5255C304.262 84.8362 304.527 85.0538 304.875 85.1782ZM351.658 122.859C349.806 121.259 348.502 119.307 347.745 117.005C347.018 114.668 346.878 112.289 347.323 109.866C347.834 107.439 348.92 105.265 350.581 103.343L363.851 87.9883C365.542 86.0318 367.536 84.6425 369.834 83.8205C372.196 82.9937 374.571 82.788 376.959 83.2035C379.376 83.584 381.511 84.5745 383.362 86.1748L405.74 105.515C407.626 107.145 408.933 109.129 409.66 111.466C410.417 113.768 410.54 116.133 410.029 118.56C409.548 120.952 408.463 123.126 406.772 125.083L393.501 140.438C391.84 142.359 389.846 143.749 387.519 144.606C385.221 145.428 382.864 145.648 380.446 145.268C378.059 144.852 375.922 143.829 374.035 142.199L351.658 122.859ZM380.801 126.532C381.29 126.955 381.86 127.142 382.511 127.095C383.193 127.012 383.775 126.692 384.258 126.133L391.46 117.8C391.943 117.241 392.176 116.619 392.159 115.932C392.142 115.246 391.888 114.692 391.399 114.269L376.883 101.723C376.394 101.3 375.791 101.115 375.074 101.167C374.393 101.249 373.811 101.57 373.327 102.129L366.126 110.462C365.643 111.021 365.41 111.643 365.427 112.329C365.509 113.011 365.795 113.563 366.284 113.986L380.801 126.532ZM392.666 165.46C391.5 163.308 390.971 161.021 391.077 158.6C391.225 156.157 391.935 153.882 393.209 151.774C394.546 149.685 396.331 148.035 398.564 146.825L416.409 137.159C418.683 135.928 421.039 135.334 423.479 135.378C425.981 135.44 428.275 136.088 430.361 137.322C432.488 138.533 434.134 140.215 435.3 142.367L449.387 168.373C450.574 170.566 451.094 172.884 450.947 175.327C450.841 177.748 450.119 180.003 448.782 182.092C447.487 184.16 445.702 185.809 443.428 187.041L425.583 196.707C423.349 197.917 420.993 198.51 418.513 198.488C416.073 198.444 413.79 197.817 411.663 196.605C409.577 195.372 407.94 193.659 406.753 191.466L392.666 165.46ZM418.624 179.207C418.932 179.775 419.399 180.152 420.025 180.339C420.692 180.503 421.35 180.409 421.999 180.057L431.683 174.812C432.333 174.46 432.771 173.96 432.998 173.312C433.225 172.664 433.184 172.056 432.876 171.487L423.738 154.616C423.43 154.048 422.932 153.661 422.243 153.457C421.577 153.292 420.918 153.386 420.269 153.738L410.585 158.984C409.935 159.336 409.497 159.835 409.27 160.483C409.106 161.15 409.178 161.768 409.486 162.336L418.624 179.207ZM468.859 254.632L443.828 238.843C443.62 238.685 443.355 238.628 443.035 238.672C442.715 238.716 442.476 238.843 442.318 239.051L422.471 261.004C422.353 261.16 422.173 261.208 421.932 261.148C421.736 261.082 421.623 260.934 421.591 260.706L419.272 243.825C419.115 242.681 419.421 241.683 420.189 240.832L432.626 227.028C433.033 226.599 433.196 226.087 433.114 225.493L432.549 221.375C432.523 221.192 432.401 220.976 432.18 220.727C431.88 220.582 431.639 220.522 431.456 220.547L417.32 222.489C417.045 222.526 416.804 222.466 416.596 222.308C416.388 222.151 416.265 221.934 416.227 221.66L414.257 207.318C414.219 207.043 414.279 206.802 414.437 206.594C414.687 206.373 414.903 206.25 415.086 206.225L461.199 199.89C461.474 199.853 461.715 199.913 461.923 200.071C462.132 200.228 462.254 200.445 462.292 200.719L464.262 215.061C464.3 215.335 464.24 215.577 464.082 215.785C463.924 215.993 463.708 216.116 463.434 216.154L449.023 218.133C448.84 218.158 448.624 218.281 448.375 218.502C448.229 218.802 448.169 219.043 448.194 219.226L448.722 223.069C448.81 223.709 449.108 224.181 449.616 224.484L465.617 234.591C466.587 235.204 467.15 236.082 467.307 237.226L469.626 254.107C469.658 254.335 469.588 254.508 469.418 254.625C469.202 254.748 469.016 254.75 468.859 254.632Z" fill="white"/>
</svg>
