<svg width="284" height="40" viewBox="0 0 284 40" fill="none" xmlns="http://www.w3.org/2000/svg">
<path d="M29.3335 34.6667H5.0935C4.88016 34.6667 4.6935 34.6 4.5335 34.4667C4.40016 34.3067 4.3335 34.12 4.3335 33.9067V7.42665C4.3335 7.21332 4.40016 7.03999 4.5335 6.90666C4.6935 6.74666 4.88016 6.66665 5.0935 6.66665H28.4535C30.0802 6.66665 31.5868 7.07999 32.9735 7.90666C34.3868 8.70665 35.4935 9.79999 36.2935 11.1867C37.1202 12.5467 37.5335 14.04 37.5335 15.6667C37.5335 17.2667 37.1335 18.76 36.3335 20.1467C37.6402 21.8 38.2935 23.6667 38.2935 25.7467C38.2935 27.3733 37.8935 28.8667 37.0935 30.2267C36.2935 31.5867 35.2002 32.6667 33.8135 33.4667C32.4535 34.2667 30.9602 34.6667 29.3335 34.6667ZM14.5735 16.8267H25.4535C26.3068 16.8267 26.7335 16.52 26.7335 15.9067C26.7335 15.2933 26.3068 14.9867 25.4535 14.9867H14.5735C14.3602 14.9867 14.1735 15.0667 14.0135 15.2267C13.8802 15.36 13.8135 15.5333 13.8135 15.7467V16.0667C13.8135 16.28 13.8802 16.4667 14.0135 16.6267C14.1735 16.76 14.3602 16.8267 14.5735 16.8267ZM14.5735 26.4667H25.4535C26.3068 26.4667 26.7335 26.16 26.7335 25.5467C26.7335 24.9333 26.3068 24.6267 25.4535 24.6267H14.5735C14.3602 24.6267 14.1735 24.7067 14.0135 24.8667C13.8802 25 13.8135 25.1733 13.8135 25.3867V25.7067C13.8135 25.92 13.8802 26.1067 14.0135 26.2667C14.1735 26.4 14.3602 26.4667 14.5735 26.4667ZM50.1101 15.0267C49.8967 15.0267 49.7901 15.12 49.7901 15.3067V16.9467C49.7901 17.1333 49.8967 17.2267 50.1101 17.2267H68.9901C69.2034 17.2267 69.3767 17.3067 69.5101 17.4667C69.6701 17.6 69.7501 17.7733 69.7501 17.9867V23.4667C69.7501 23.68 69.6701 23.8667 69.5101 24.0267C69.3767 24.16 69.2034 24.2267 68.9901 24.2267H50.1101C49.8967 24.2267 49.7901 24.32 49.7901 24.5067V26.2267C49.7901 26.4133 49.8967 26.5067 50.1101 26.5067H68.9901C69.2034 26.5067 69.3767 26.5867 69.5101 26.7467C69.6701 26.88 69.7501 27.0533 69.7501 27.2667V33.9067C69.7501 34.12 69.6701 34.3067 69.5101 34.4667C69.3767 34.6 69.2034 34.6667 68.9901 34.6667H41.0701C40.8567 34.6667 40.6701 34.6 40.5101 34.4667C40.3767 34.3067 40.3101 34.12 40.3101 33.9067V7.42665C40.3101 7.21332 40.3767 7.03999 40.5101 6.90666C40.6701 6.74666 40.8567 6.66665 41.0701 6.66665H68.9901C69.2034 6.66665 69.3767 6.74666 69.5101 6.90666C69.6701 7.03999 69.7501 7.21332 69.7501 7.42665V14.2667C69.7501 14.48 69.6701 14.6667 69.5101 14.8267C69.3767 14.96 69.2034 15.0267 68.9901 15.0267H50.1101ZM72.7154 34.6667C72.3954 34.6667 72.142 34.5467 71.9554 34.3067C71.7954 34.0667 71.742 33.7867 71.7954 33.4667L78.7954 7.34666C78.8487 7.13332 78.9554 6.97332 79.1154 6.86665C79.302 6.73332 79.502 6.66665 79.7154 6.66665H94.9954C95.2087 6.66665 95.4087 6.73332 95.5954 6.86665C95.782 6.99999 95.8887 7.15999 95.9154 7.34666L102.915 33.4667C102.995 33.7867 102.942 34.0667 102.755 34.3067C102.569 34.5467 102.315 34.6667 101.995 34.6667H93.9554C93.742 34.6667 93.542 34.6133 93.3554 34.5067C93.1954 34.3733 93.0887 34.2 93.0354 33.9867L92.4754 31.8267C92.4487 31.72 92.382 31.6267 92.2754 31.5467C92.1687 31.4667 92.0487 31.4267 91.9154 31.4267H82.7954C82.662 31.4267 82.542 31.4667 82.4354 31.5467C82.3287 31.6267 82.262 31.72 82.2354 31.8267C82.182 32.0667 82.1287 32.2667 82.0754 32.4267C82.022 32.5867 81.982 32.7333 81.9554 32.8667C81.7687 33.56 81.662 34.0267 81.6354 34.2667C81.5554 34.5333 81.3687 34.6667 81.0754 34.6667H72.7154ZM89.3154 22.7467C89.502 22.7467 89.6487 22.68 89.7554 22.5467C89.862 22.3867 89.8887 22.2 89.8354 21.9867L88.1154 15.6267C88.0887 15.4667 87.982 15.3867 87.7954 15.3867H86.9154C86.7554 15.3867 86.6487 15.4667 86.5954 15.6267L84.8754 21.9867V22.1467C84.8754 22.3067 84.9154 22.4533 84.9954 22.5867C85.102 22.6933 85.2354 22.7467 85.3954 22.7467H89.3154ZM116.478 34.6667C116.292 34.6667 116.145 34.6133 116.038 34.5067C115.932 34.3733 115.878 34.2267 115.878 34.0667V15.9467C115.878 15.7867 115.825 15.6533 115.718 15.5467C115.612 15.44 115.478 15.3867 115.318 15.3867H105.518C105.385 15.3867 105.252 15.32 105.118 15.1867C105.012 15.0267 104.958 14.88 104.958 14.7467V7.26665C104.958 7.13332 105.012 6.98665 105.118 6.82665C105.225 6.71999 105.358 6.66665 105.518 6.66665H135.678C135.838 6.66665 135.972 6.71999 136.078 6.82665C136.185 6.98665 136.238 7.13332 136.238 7.26665V14.7467C136.238 14.88 136.185 15.0267 136.078 15.1867C135.945 15.32 135.812 15.3867 135.678 15.3867H125.878C125.745 15.3867 125.612 15.44 125.478 15.5467C125.372 15.6533 125.318 15.7867 125.318 15.9467V34.0667C125.318 34.2267 125.265 34.3733 125.158 34.5067C125.052 34.6133 124.905 34.6667 124.718 34.6667H116.478ZM163.24 34.6667H139C138.786 34.6667 138.6 34.6 138.44 34.4667C138.306 34.3067 138.24 34.12 138.24 33.9067V7.42665C138.24 7.21332 138.306 7.03999 138.44 6.90666C138.6 6.74666 138.786 6.66665 139 6.66665H162.36C163.986 6.66665 165.493 7.07999 166.88 7.90666C168.293 8.70665 169.4 9.79999 170.2 11.1867C171.026 12.5467 171.44 14.04 171.44 15.6667C171.44 17.2667 171.04 18.76 170.24 20.1467C171.546 21.8 172.2 23.6667 172.2 25.7467C172.2 27.3733 171.8 28.8667 171 30.2267C170.2 31.5867 169.106 32.6667 167.72 33.4667C166.36 34.2667 164.866 34.6667 163.24 34.6667ZM148.48 16.8267H159.36C160.213 16.8267 160.64 16.52 160.64 15.9067C160.64 15.2933 160.213 14.9867 159.36 14.9867H148.48C148.266 14.9867 148.08 15.0667 147.92 15.2267C147.786 15.36 147.72 15.5333 147.72 15.7467V16.0667C147.72 16.28 147.786 16.4667 147.92 16.6267C148.08 16.76 148.266 16.8267 148.48 16.8267ZM148.48 26.4667H159.36C160.213 26.4667 160.64 26.16 160.64 25.5467C160.64 24.9333 160.213 24.6267 159.36 24.6267H148.48C148.266 24.6267 148.08 24.7067 147.92 24.8667C147.786 25 147.72 25.1733 147.72 25.3867V25.7067C147.72 25.92 147.786 26.1067 147.92 26.2667C148.08 26.4 148.266 26.4667 148.48 26.4667ZM182.056 34.6667C180.643 34.6667 179.336 34.3067 178.136 33.5867C176.936 32.84 175.976 31.8533 175.256 30.6267C174.563 29.3733 174.216 28.0133 174.216 26.5467V14.8267C174.216 13.3333 174.563 11.9733 175.256 10.7467C175.976 9.49332 176.936 8.50665 178.136 7.78665C179.336 7.03999 180.643 6.66665 182.056 6.66665H199.136C200.576 6.66665 201.896 7.03999 203.096 7.78665C204.296 8.50665 205.243 9.49332 205.936 10.7467C206.63 11.9733 206.976 13.3333 206.976 14.8267V26.5467C206.976 28.0133 206.63 29.3733 205.936 30.6267C205.243 31.8533 204.296 32.84 203.096 33.5867C201.896 34.3067 200.576 34.6667 199.136 34.6667H182.056ZM196.176 25.2667C196.55 25.2667 196.87 25.1333 197.136 24.8667C197.403 24.5733 197.536 24.2133 197.536 23.7867V17.4267C197.536 17 197.403 16.64 197.136 16.3467C196.87 16.0533 196.55 15.9067 196.176 15.9067H185.096C184.723 15.9067 184.39 16.0533 184.096 16.3467C183.83 16.64 183.696 17 183.696 17.4267V23.7867C183.696 24.2133 183.83 24.5733 184.096 24.8667C184.39 25.1333 184.723 25.2667 185.096 25.2667H196.176ZM216.822 34.6667C215.409 34.6667 214.102 34.3067 212.902 33.5867C211.702 32.84 210.742 31.8533 210.022 30.6267C209.329 29.3733 208.982 28.0133 208.982 26.5467V14.8267C208.982 13.3333 209.329 11.9733 210.022 10.7467C210.742 9.49332 211.702 8.50665 212.902 7.78665C214.102 7.03999 215.409 6.66665 216.822 6.66665H233.902C235.342 6.66665 236.662 7.03999 237.862 7.78665C239.062 8.50665 240.009 9.49332 240.702 10.7467C241.395 11.9733 241.742 13.3333 241.742 14.8267V26.5467C241.742 28.0133 241.395 29.3733 240.702 30.6267C240.009 31.8533 239.062 32.84 237.862 33.5867C236.662 34.3067 235.342 34.6667 233.902 34.6667H216.822ZM230.942 25.2667C231.315 25.2667 231.635 25.1333 231.902 24.8667C232.169 24.5733 232.302 24.2133 232.302 23.7867V17.4267C232.302 17 232.169 16.64 231.902 16.3467C231.635 16.0533 231.315 15.9067 230.942 15.9067H219.862C219.489 15.9067 219.155 16.0533 218.862 16.3467C218.595 16.64 218.462 17 218.462 17.4267V23.7867C218.462 24.2133 218.595 24.5733 218.862 24.8667C219.155 25.1333 219.489 25.2667 219.862 25.2667H230.942ZM275.668 7.14666L264.668 20.2267C264.561 20.3333 264.508 20.48 264.508 20.6667C264.508 20.8533 264.561 21 264.668 21.1067L275.668 34.1867C275.748 34.2667 275.761 34.3733 275.708 34.5067C275.654 34.6133 275.561 34.6667 275.428 34.6667H265.588C264.921 34.6667 264.374 34.4133 263.948 33.9067L257.028 25.7067C256.814 25.44 256.534 25.3067 256.188 25.3067H253.788C253.681 25.3067 253.548 25.36 253.388 25.4667C253.281 25.6267 253.228 25.76 253.228 25.8667V34.1067C253.228 34.2667 253.174 34.4 253.068 34.5067C252.961 34.6133 252.828 34.6667 252.668 34.6667H244.308C244.148 34.6667 244.014 34.6133 243.908 34.5067C243.801 34.3467 243.748 34.2133 243.748 34.1067V7.22665C243.748 7.06666 243.801 6.93332 243.908 6.82665C244.014 6.71999 244.148 6.66665 244.308 6.66665H252.668C252.828 6.66665 252.961 6.71999 253.068 6.82665C253.174 6.93332 253.228 7.06666 253.228 7.22665V15.6267C253.228 15.7333 253.281 15.8667 253.388 16.0267C253.548 16.1333 253.681 16.1867 253.788 16.1867H256.028C256.401 16.1867 256.694 16.0533 256.908 15.7867L263.948 7.42665C264.374 6.91999 264.921 6.66665 265.588 6.66665H275.428C275.561 6.66665 275.654 6.71999 275.708 6.82665C275.761 6.95999 275.748 7.06666 275.668 7.14666Z" fill="#38A65D"/>
</svg>
