<svg width="215" height="20" viewBox="0 0 215 20" fill="none" xmlns="http://www.w3.org/2000/svg">
<path d="M17.1698 18.4905H1.16226C1.02138 18.4905 0.898113 18.4465 0.792453 18.3584C0.704402 18.2527 0.660377 18.1295 0.660377 17.9886V0.501799C0.660377 0.360919 0.704402 0.246454 0.792453 0.158404C0.898113 0.0527431 1.02138 -8.74717e-05 1.16226 -8.74717e-05H16.5887C17.6629 -8.74717e-05 18.6579 0.272869 19.5736 0.818781C20.5069 1.34708 21.2377 2.06909 21.766 2.98482C22.3119 3.88293 22.5849 4.8691 22.5849 5.94331C22.5849 6.99991 22.3208 7.98608 21.7925 8.9018C22.6553 9.99362 23.0868 11.2263 23.0868 12.5999C23.0868 13.6741 22.8226 14.6603 22.2943 15.5584C21.766 16.4565 21.044 17.1697 20.1283 17.698C19.2302 18.2263 18.244 18.4905 17.1698 18.4905ZM7.42264 6.70935H14.6075C15.1711 6.70935 15.4528 6.50683 15.4528 6.1018C15.4528 5.69677 15.1711 5.49425 14.6075 5.49425H7.42264C7.28176 5.49425 7.15849 5.54708 7.05283 5.65274C6.96478 5.74079 6.92075 5.85526 6.92075 5.99614V6.20746C6.92075 6.34834 6.96478 6.47161 7.05283 6.57727C7.15849 6.66532 7.28176 6.70935 7.42264 6.70935ZM7.42264 13.0754H14.6075C15.1711 13.0754 15.4528 12.8729 15.4528 12.4678C15.4528 12.0628 15.1711 11.8603 14.6075 11.8603H7.42264C7.28176 11.8603 7.15849 11.9131 7.05283 12.0188C6.96478 12.1068 6.92075 12.2213 6.92075 12.3622V12.5735C6.92075 12.7144 6.96478 12.8376 7.05283 12.9433C7.15849 13.0314 7.28176 13.0754 7.42264 13.0754ZM30.8902 5.52067C30.7493 5.52067 30.6789 5.5823 30.6789 5.70557V6.78859C30.6789 6.91186 30.7493 6.9735 30.8902 6.9735H43.3581C43.499 6.9735 43.6135 7.02633 43.7015 7.13199C43.8072 7.22004 43.86 7.3345 43.86 7.47538V11.0943C43.86 11.2351 43.8072 11.3584 43.7015 11.4641C43.6135 11.5521 43.499 11.5961 43.3581 11.5961H30.8902C30.7493 11.5961 30.6789 11.6578 30.6789 11.781V12.9169C30.6789 13.0402 30.7493 13.1018 30.8902 13.1018H43.3581C43.499 13.1018 43.6135 13.1546 43.7015 13.2603C43.8072 13.3483 43.86 13.4628 43.86 13.6037V17.9886C43.86 18.1295 43.8072 18.2527 43.7015 18.3584C43.6135 18.4465 43.499 18.4905 43.3581 18.4905H24.9204C24.7795 18.4905 24.6562 18.4465 24.5506 18.3584C24.4625 18.2527 24.4185 18.1295 24.4185 17.9886V0.501799C24.4185 0.360919 24.4625 0.246454 24.5506 0.158404C24.6562 0.0527431 24.7795 -8.74717e-05 24.9204 -8.74717e-05H43.3581C43.499 -8.74717e-05 43.6135 0.0527431 43.7015 0.158404C43.8072 0.246454 43.86 0.360919 43.86 0.501799V5.01878C43.86 5.15966 43.8072 5.28293 43.7015 5.38859C43.6135 5.47664 43.499 5.52067 43.3581 5.52067H30.8902ZM45.8182 18.4905C45.6069 18.4905 45.4396 18.4112 45.3163 18.2527C45.2107 18.0943 45.1754 17.9093 45.2107 17.698L49.8333 0.44897C49.8685 0.308089 49.939 0.202428 50.0446 0.131988C50.1679 0.0439376 50.3 -8.74717e-05 50.4409 -8.74717e-05H60.5314C60.6723 -8.74717e-05 60.8044 0.0439376 60.9276 0.131988C61.0509 0.220038 61.1214 0.325699 61.139 0.44897L65.7616 17.698C65.8144 17.9093 65.7792 18.0943 65.656 18.2527C65.5327 18.4112 65.3654 18.4905 65.1541 18.4905H59.8446C59.7038 18.4905 59.5717 18.4553 59.4484 18.3848C59.3427 18.2968 59.2723 18.1823 59.2371 18.0414L58.8673 16.615C58.8497 16.5446 58.8056 16.4829 58.7352 16.4301C58.6648 16.3773 58.5855 16.3509 58.4975 16.3509H52.4748C52.3868 16.3509 52.3075 16.3773 52.2371 16.4301C52.1666 16.4829 52.1226 16.5446 52.105 16.615C52.0698 16.7735 52.0346 16.9056 51.9993 17.0112C51.9641 17.1169 51.9377 17.2137 51.9201 17.3018C51.7968 17.7597 51.7264 18.0678 51.7088 18.2263C51.656 18.4024 51.5327 18.4905 51.339 18.4905H45.8182ZM56.7805 10.6188C56.9037 10.6188 57.0006 10.5748 57.071 10.4867C57.1415 10.381 57.1591 10.2578 57.1239 10.1169L55.988 5.91689C55.9704 5.81123 55.9 5.7584 55.7767 5.7584H55.1956C55.0899 5.7584 55.0195 5.81123 54.9843 5.91689L53.8484 10.1169V10.2226C53.8484 10.3282 53.8748 10.4251 53.9276 10.5131C53.9981 10.5836 54.0861 10.6188 54.1918 10.6188H56.7805ZM74.7184 18.4905C74.5951 18.4905 74.4983 18.4553 74.4278 18.3848C74.3574 18.2968 74.3222 18.1999 74.3222 18.0943V6.12821C74.3222 6.02255 74.2869 5.9345 74.2165 5.86406C74.1461 5.79362 74.058 5.7584 73.9524 5.7584H67.4807C67.3926 5.7584 67.3046 5.71438 67.2165 5.62633C67.1461 5.52067 67.1108 5.42381 67.1108 5.33576V0.396139C67.1108 0.308088 67.1461 0.211233 67.2165 0.105573C67.2869 0.0351327 67.375 -8.74717e-05 67.4807 -8.74717e-05H87.3976C87.5033 -8.74717e-05 87.5913 0.0351327 87.6618 0.105573C87.7322 0.211233 87.7675 0.308088 87.7675 0.396139V5.33576C87.7675 5.42381 87.7322 5.52067 87.6618 5.62633C87.5737 5.71438 87.4857 5.7584 87.3976 5.7584H80.9259C80.8379 5.7584 80.7498 5.79362 80.6618 5.86406C80.5914 5.9345 80.5561 6.02255 80.5561 6.12821V18.0943C80.5561 18.1999 80.5209 18.2968 80.4505 18.3848C80.38 18.4553 80.2832 18.4905 80.1599 18.4905H74.7184ZM105.598 18.4905H89.5909C89.45 18.4905 89.3268 18.4465 89.2211 18.3584C89.1331 18.2527 89.089 18.1295 89.089 17.9886V0.501799C89.089 0.360919 89.1331 0.246454 89.2211 0.158404C89.3268 0.0527431 89.45 -8.74717e-05 89.5909 -8.74717e-05H105.017C106.092 -8.74717e-05 107.087 0.272869 108.002 0.818781C108.936 1.34708 109.666 2.06909 110.195 2.98482C110.741 3.88293 111.014 4.8691 111.014 5.94331C111.014 6.99991 110.749 7.98608 110.221 8.9018C111.084 9.99362 111.515 11.2263 111.515 12.5999C111.515 13.6741 111.251 14.6603 110.723 15.5584C110.195 16.4565 109.473 17.1697 108.557 17.698C107.659 18.2263 106.673 18.4905 105.598 18.4905ZM95.8513 6.70935H103.036C103.6 6.70935 103.881 6.50683 103.881 6.1018C103.881 5.69677 103.6 5.49425 103.036 5.49425H95.8513C95.7104 5.49425 95.5871 5.54708 95.4815 5.65274C95.3934 5.74079 95.3494 5.85526 95.3494 5.99614V6.20746C95.3494 6.34834 95.3934 6.47161 95.4815 6.57727C95.5871 6.66532 95.7104 6.70935 95.8513 6.70935ZM95.8513 13.0754H103.036C103.6 13.0754 103.881 12.8729 103.881 12.4678C103.881 12.0628 103.6 11.8603 103.036 11.8603H95.8513C95.7104 11.8603 95.5871 11.9131 95.4815 12.0188C95.3934 12.1068 95.3494 12.2213 95.3494 12.3622V12.5735C95.3494 12.7144 95.3934 12.8376 95.4815 12.9433C95.5871 13.0314 95.7104 13.0754 95.8513 13.0754ZM118.024 18.4905C117.091 18.4905 116.228 18.2527 115.436 17.7773C114.643 17.2842 114.009 16.6326 113.534 15.8226C113.076 14.9949 112.847 14.0968 112.847 13.1282V5.38859C112.847 4.40243 113.076 3.50431 113.534 2.69425C114.009 1.86658 114.643 1.21501 115.436 0.739535C116.228 0.246453 117.091 -8.74717e-05 118.024 -8.74717e-05H129.304C130.255 -8.74717e-05 131.126 0.246453 131.919 0.739535C132.711 1.21501 133.336 1.86658 133.794 2.69425C134.252 3.50431 134.481 4.40243 134.481 5.38859V13.1282C134.481 14.0968 134.252 14.9949 133.794 15.8226C133.336 16.6326 132.711 17.2842 131.919 17.7773C131.126 18.2527 130.255 18.4905 129.304 18.4905H118.024ZM127.349 12.2829C127.596 12.2829 127.807 12.1949 127.983 12.0188C128.159 11.8251 128.247 11.5873 128.247 11.3056V7.10557C128.247 6.82381 128.159 6.58608 127.983 6.39237C127.807 6.19865 127.596 6.1018 127.349 6.1018H120.032C119.786 6.1018 119.565 6.19865 119.372 6.39237C119.196 6.58608 119.108 6.82381 119.108 7.10557V11.3056C119.108 11.5873 119.196 11.8251 119.372 12.0188C119.565 12.1949 119.786 12.2829 120.032 12.2829H127.349ZM140.983 18.4905C140.05 18.4905 139.187 18.2527 138.394 17.7773C137.602 17.2842 136.968 16.6326 136.492 15.8226C136.034 14.9949 135.806 14.0968 135.806 13.1282V5.38859C135.806 4.40243 136.034 3.50431 136.492 2.69425C136.968 1.86658 137.602 1.21501 138.394 0.739535C139.187 0.246453 140.05 -8.74717e-05 140.983 -8.74717e-05H152.262C153.213 -8.74717e-05 154.085 0.246453 154.877 0.739535C155.67 1.21501 156.295 1.86658 156.753 2.69425C157.211 3.50431 157.44 4.40243 157.44 5.38859V13.1282C157.44 14.0968 157.211 14.9949 156.753 15.8226C156.295 16.6326 155.67 17.2842 154.877 17.7773C154.085 18.2527 153.213 18.4905 152.262 18.4905H140.983ZM150.307 12.2829C150.554 12.2829 150.765 12.1949 150.941 12.0188C151.118 11.8251 151.206 11.5873 151.206 11.3056V7.10557C151.206 6.82381 151.118 6.58608 150.941 6.39237C150.765 6.19865 150.554 6.1018 150.307 6.1018H142.99C142.744 6.1018 142.524 6.19865 142.33 6.39237C142.154 6.58608 142.066 6.82381 142.066 7.10557V11.3056C142.066 11.5873 142.154 11.8251 142.33 12.0188C142.524 12.1949 142.744 12.2829 142.99 12.2829H150.307ZM179.843 0.316894L172.579 8.95463C172.509 9.02507 172.473 9.12193 172.473 9.2452C172.473 9.36847 172.509 9.46532 172.579 9.53576L179.843 18.1735C179.896 18.2263 179.905 18.2968 179.87 18.3848C179.834 18.4553 179.773 18.4905 179.685 18.4905H173.187C172.746 18.4905 172.385 18.3232 172.104 17.9886L167.534 12.5735C167.393 12.3974 167.208 12.3093 166.979 12.3093H165.394C165.324 12.3093 165.236 12.3446 165.13 12.415C165.06 12.5207 165.024 12.6087 165.024 12.6792V18.1207C165.024 18.2263 164.989 18.3144 164.919 18.3848C164.848 18.4553 164.76 18.4905 164.655 18.4905H159.134C159.028 18.4905 158.94 18.4553 158.87 18.3848C158.799 18.2792 158.764 18.1911 158.764 18.1207V0.369724C158.764 0.264064 158.799 0.176014 158.87 0.105573C158.94 0.0351327 159.028 -8.74717e-05 159.134 -8.74717e-05H164.655C164.76 -8.74717e-05 164.848 0.0351327 164.919 0.105573C164.989 0.176014 165.024 0.264064 165.024 0.369724V5.91689C165.024 5.98733 165.06 6.07538 165.13 6.18104C165.236 6.25149 165.324 6.28671 165.394 6.28671H166.873C167.12 6.28671 167.314 6.19865 167.455 6.02255L172.104 0.501799C172.385 0.167208 172.746 -8.74717e-05 173.187 -8.74717e-05H179.685C179.773 -8.74717e-05 179.834 0.0351327 179.87 0.105573C179.905 0.193623 179.896 0.264064 179.843 0.316894Z" fill="#38A65D"/>
<path d="M184.883 19.0224C184.191 19.0224 183.597 18.7806 183.101 18.2971C182.612 17.8076 182.37 17.2137 182.376 16.5153C182.37 15.8348 182.612 15.2527 183.101 14.7692C183.597 14.2857 184.191 14.044 184.883 14.044C185.54 14.044 186.119 14.2857 186.62 14.7692C187.128 15.2527 187.384 15.8348 187.39 16.5153C187.384 16.9809 187.262 17.4047 187.023 17.7867C186.79 18.1628 186.486 18.4642 186.11 18.6911C185.734 18.9119 185.325 19.0224 184.883 19.0224ZM194.983 0.39809V18.7358H190.005V0.39809H194.983ZM204.398 18.7358H197.343V0.39809H204.327C206.213 0.39809 207.843 0.765203 209.216 1.49943C210.594 2.22769 211.657 3.27829 212.403 4.65123C213.155 6.0182 213.531 7.65678 213.531 9.56697C213.531 11.4771 213.158 13.1187 212.412 14.4917C211.666 15.8586 210.609 16.9092 209.242 17.6435C207.875 18.3717 206.261 18.7358 204.398 18.7358ZM202.321 14.5096H204.219C205.127 14.5096 205.9 14.3633 206.538 14.0708C207.183 13.7783 207.672 13.2739 208.007 12.5576C208.347 11.8413 208.517 10.8444 208.517 9.56697C208.517 8.28953 208.344 7.29265 207.998 6.57634C207.658 5.86002 207.156 5.35561 206.494 5.06311C205.837 4.77062 205.031 4.62437 204.076 4.62437H202.321V14.5096Z" fill="#38A65D" fill-opacity="0.5"/>
</svg>
