<svg width="768" height="768" viewBox="0 0 768 768" fill="none" xmlns="http://www.w3.org/2000/svg">
<path d="M736 384C736 286.816 696.576 198.752 632.896 135.104C569.216 71.456 481.184 32 384 32C286.816 32 198.752 71.424 135.104 135.104C71.456 198.784 32 286.816 32 384C32 481.184 71.424 569.248 135.104 632.896C198.784 696.544 286.816 736 384 736C481.184 736 569.248 696.576 632.896 632.896C696.544 569.216 736 481.184 736 384ZM672 384C672 463.552 639.808 535.488 587.648 587.648C535.488 639.808 463.552 672 384 672C304.448 672 232.512 639.808 180.352 587.648C128.192 535.488 96 463.552 96 384C96 304.448 128.192 232.512 180.352 180.352C232.512 128.192 304.448 96 384 96C463.552 96 535.488 128.192 587.648 180.352C639.808 232.512 672 304.448 672 384ZM256 416H352V512C352 529.664 366.336 544 384 544C401.664 544 416 529.664 416 512V416H512C529.664 416 544 401.664 544 384C544 366.336 529.664 352 512 352H416V256C416 238.336 401.664 224 384 224C366.336 224 352 238.336 352 256V352H256C238.336 352 224 366.336 224 384C224 401.664 238.336 416 256 416Z" fill="white"/>
</svg>
