<svg width="350" height="350" viewBox="0 0 350 350" fill="none" xmlns="http://www.w3.org/2000/svg">
<rect width="350" height="350" fill="#38A65D"/>
<path d="M250.983 250.986V234.101C250.983 222.449 246.247 211.879 238.623 204.246C230.999 196.614 220.42 191.886 208.769 191.886H141.225C129.573 191.886 119.003 196.622 111.37 204.246C103.738 211.87 99.0098 222.449 99.0098 234.101V250.986C99.0098 255.647 102.792 259.429 107.453 259.429C112.113 259.429 115.896 255.647 115.896 250.986V234.101C115.896 227.101 118.724 220.786 123.317 216.193C127.91 211.6 134.225 208.772 141.225 208.772H208.769C215.768 208.772 222.083 211.6 226.676 216.193C231.269 220.786 234.097 227.101 234.097 234.101V250.986C234.097 255.647 237.88 259.429 242.54 259.429C247.201 259.429 250.983 255.647 250.983 250.986ZM217.212 132.785C217.212 121.133 212.475 110.563 204.851 102.93C197.227 95.2979 186.648 90.5698 174.997 90.5698C163.345 90.5698 152.775 95.3063 145.142 102.93C137.51 110.554 132.782 121.133 132.782 132.785C132.782 144.436 137.518 155.007 145.142 162.639C152.766 170.272 163.345 175 174.997 175C186.648 175 197.219 170.263 204.851 162.639C212.483 155.015 217.212 144.436 217.212 132.785ZM200.326 132.785C200.326 139.784 197.497 146.099 192.904 150.692C188.311 155.285 181.996 158.114 174.997 158.114C167.997 158.114 161.682 155.285 157.089 150.692C152.496 146.099 149.668 139.784 149.668 132.785C149.668 125.786 152.496 119.47 157.089 114.877C161.682 110.284 167.997 107.456 174.997 107.456C181.996 107.456 188.311 110.284 192.904 114.877C197.497 119.47 200.326 125.786 200.326 132.785Z" fill="white"/>
</svg>
